<svg xmlns="http://www.w3.org/2000/svg" viewBox="0 0 2090.45 1824.19"><defs><style>.cls-1{fill:#dcf4ff;}.cls-2{fill:#49263e;}.cls-3{fill:#ff424d;}.cls-4{fill:#4cb7d8;}.cls-5{fill:#e36a45;}.cls-6{fill:#fc4f68;}.cls-7{fill:#fc9168;}.cls-8{fill:#fe9f73;}.cls-9{fill:#3e95b0;}.cls-10{fill:#fff;}.cls-11{fill:#ffcd70;}.cls-12{fill:#f7d6b2;}.cls-13{fill:#f98178;}.cls-14{fill:#ffb294;}.cls-15{fill:#cf353e;}</style></defs><title>Asset 1</title><g id="Layer_2" data-name="Layer 2"><g id="Layer_1-2" data-name="Layer 1"><path class="cls-1" d="M154,1330.13c30.9-149.51,29.83-181.43-4.61-303.9-31.94-113.55-93.56-383.55,7.61-622C260.88,159.37,413.93,157.54,522.25,191.17c79.49,24.68,188.25,10.72,322.66-65s377.49-196,626.44-74c215.24,105.53,226.08,272.4,312.37,365.15S1966.56,477.05,2048,692.9s66.1,769.94-226.46,898.05c-435.39,190.64-558.59-176.7-793.9-36.51s-659.15,81.93-659.15,81.93S98.21,1600.16,154,1330.13Z"/><path class="cls-2" d="M864.75,1258.66h-.08a2.88,2.88,0,0,1-2.8-3c3.81-131.79-16.14-733.68-35.61-1003.48a2.88,2.88,0,0,1,5.74-.42c19.48,269.92,39.45,872.17,35.63,1004.07A2.88,2.88,0,0,1,864.75,1258.66Z"/><path class="cls-2" d="M1236.3,1358.62h-.07a2.88,2.88,0,0,1-2.81-2.95c.17-7,16.16-703.08-36.85-1103.5a2.88,2.88,0,1,1,5.71-.76c53.07,400.87,37.06,1097.41,36.9,1104.4A2.88,2.88,0,0,1,1236.3,1358.62Z"/><path class="cls-2" d="M609.61,940a2.88,2.88,0,0,1-.41-5.73c304.61-43.52,656.76-19.65,846-6.83,49.68,3.37,88.92,6,115.66,6.8a2.88,2.88,0,1,1-.16,5.76c-26.86-.78-66.15-3.44-115.89-6.82C1265.78,920.39,914,896.55,610,940Z"/><path class="cls-2" d="M567,606.26a2.88,2.88,0,0,1-.4-5.73c400.28-57.16,1051.78-61.13,1058.32-61.16h0a2.88,2.88,0,0,1,0,5.76c-6.53,0-657.65,4-1057.54,61.1A2.73,2.73,0,0,1,567,606.26Z"/><path class="cls-3" d="M932.61,849.77a6.24,6.24,0,0,1-4.81-10.21c1.3-1.58,130.45-158.18,179.89-214a6.24,6.24,0,0,1,9.34,8.28c-49.29,55.61-178.3,212-179.6,213.62A6.24,6.24,0,0,1,932.61,849.77Z"/><path class="cls-3" d="M1149.79,853.82a6.16,6.16,0,0,1-3.29-.94C1143.41,851,1069.27,804,928,651.14a6.24,6.24,0,1,1,9.17-8.47C1077,794,1152.36,841.82,1153.1,842.29a6.24,6.24,0,0,1-3.31,11.53Z"/><path class="cls-3" d="M1335.82,843.61A6.23,6.23,0,0,1,1331,833.4c1.29-1.57,130.45-158.17,179.88-214a6.24,6.24,0,0,1,9.34,8.28c-49.28,55.62-178.3,212-179.59,213.62A6.23,6.23,0,0,1,1335.82,843.61Z"/><path class="cls-3" d="M1553,847.67a6.23,6.23,0,0,1-3.3-.95c-3.08-1.92-77.22-48.87-218.46-201.74a6.24,6.24,0,1,1,9.16-8.47c139.85,151.36,215.16,199.16,215.91,199.62a6.24,6.24,0,0,1-3.31,11.54Z"/><path class="cls-3" d="M913.89,496.26A6.25,6.25,0,0,1,909.08,486c1.3-1.57,130.45-158.17,179.88-214a6.24,6.24,0,0,1,9.35,8.28C1049,336,920,492.41,918.71,494A6.26,6.26,0,0,1,913.89,496.26Z"/><path class="cls-3" d="M1131.07,500.31a6.16,6.16,0,0,1-3.29-.94c-3.09-1.93-77.23-48.87-218.47-201.74a6.24,6.24,0,0,1,9.17-8.47c139.84,151.36,215.16,199.15,215.9,199.62a6.24,6.24,0,0,1-3.31,11.53Z"/><path class="cls-3" d="M609.61,1231.86a6.24,6.24,0,0,1-4.81-10.21c1.29-1.58,130.45-158.18,179.88-214A6.24,6.24,0,0,1,794,1016c-49.28,55.62-178.3,212-179.59,213.62A6.23,6.23,0,0,1,609.61,1231.86Z"/><path class="cls-3" d="M826.79,1235.92a6.23,6.23,0,0,1-3.3-1c-3.08-1.92-77.22-48.87-218.46-201.74a6.24,6.24,0,1,1,9.16-8.47C754,1176.12,829.35,1223.91,830.1,1224.38a6.24,6.24,0,0,1-3.31,11.54Z"/><path class="cls-4" d="M1419.71,494.94c-21.84,0-41.81-8.52-57.69-24.93-28.5-29.45-39.82-80-27.53-123,10.56-37,36.42-62.33,72.81-71.43a6.24,6.24,0,1,1,3,12.11c-31.88,8-54.55,30.25-63.84,62.75-11.12,38.91-1,84.52,24.49,110.92,12.69,13.11,34.79,27,68,18.66,36-9,48.88-32.79,53.31-51.12,8.45-35-6.77-81.48-34.64-105.92-11.79-10.33-30.54-20.82-53-12.17a6.24,6.24,0,1,1-4.49-11.64c22-8.51,45.38-3.39,65.7,14.43,31.57,27.68,48.14,78.51,38.54,118.23-7.4,30.65-29.57,52.06-62.4,60.3A91.77,91.77,0,0,1,1419.71,494.94Z"/><path class="cls-4" d="M1042.57,1185.19c-21.84,0-41.81-8.52-57.7-24.93-28.49-29.45-39.81-80-27.53-123,10.57-37,36.43-62.33,72.82-71.43a6.24,6.24,0,0,1,3,12.11c-31.88,8-54.55,30.25-63.84,62.75-11.12,38.91-1.05,84.52,24.49,110.92,12.69,13.11,34.79,27,68,18.66,36-9,48.88-32.79,53.31-51.12,8.44-35-6.77-81.48-34.64-105.92-11.79-10.33-30.54-20.83-53-12.17a6.24,6.24,0,0,1-4.49-11.65c22-8.5,45.38-3.38,65.69,14.43,31.58,27.69,48.15,78.52,38.55,118.24-7.4,30.65-29.57,52.06-62.4,60.3A91.77,91.77,0,0,1,1042.57,1185.19Z"/><path class="cls-4" d="M719.56,851.59c-21.83,0-41.8-8.52-57.69-24.93-28.5-29.45-39.82-80-27.53-123,10.57-37,36.43-62.34,72.82-71.43a6.24,6.24,0,1,1,3,12.11c-31.88,8-54.55,30.25-63.84,62.75C635.22,746,645.29,791.58,670.84,818c12.69,13.11,34.78,27,68,18.67,36-9,48.88-32.79,53.3-51.12,8.45-35-6.77-81.49-34.64-105.92-11.78-10.33-30.53-20.83-53-12.17A6.24,6.24,0,0,1,700,655.78c22-8.5,45.38-3.38,65.69,14.43,31.57,27.68,48.14,78.51,38.55,118.24-7.41,30.65-29.57,52.06-62.41,60.29A91.18,91.18,0,0,1,719.56,851.59Z"/><path class="cls-5" d="M1599.38,1209.56c-54.69-1.71,53.83,161.46,53.83,161.46s64.42,31.86,70.3,3.34,13.67-192.55,8.87-196.06C1732.38,1178.3,1654.07,1211.27,1599.38,1209.56Z"/><path class="cls-5" d="M1609.25,1417.76l-6.78-28.86-35.72,35C1569,1423.91,1609.25,1417.76,1609.25,1417.76Z"/><path class="cls-6" d="M1514.63,1403c-2.24,3.8,6.21,15.52,8.71,17.86s33.17-3.54,33.17-3.54l-12-35.75S1516.87,1399.18,1514.63,1403Z"/><path class="cls-5" d="M1532.5,1406.67c.32,20.33,50.32,22.32,68.67,7.69s-2.05-65-2.05-65S1531.91,1370.39,1532.5,1406.67Z"/><path d="M1565.5,1364.84l-1.24-1.81c-1.42,1-34.78,24-33,42.19,1.85,18.4,29.69,20.62,30.83,20.77l.29-2.18c-.27,0-27.25-2.14-28.93-18.81C1531.79,1388.1,1565.17,1365.07,1565.5,1364.84Z"/><path d="M1545.1,1382.46l-1.2-1.84c-.07.05-7.48,4.85-14.83,9.87-15.25,10.41-15.42,11.56-15.53,12.32-.38,2.63,2.68,13.62,9.1,18.87l1.4-1.7c-5.78-4.73-8.48-14.66-8.33-16.74l0,0C1517.15,1401.17,1531.79,1391.09,1545.1,1382.46Z"/><path class="cls-5" d="M1621.94,1463.23l-4.36-18.53-22.93,22.46C1596.08,1467.18,1621.94,1463.23,1621.94,1463.23Z"/><path class="cls-6" d="M1561.18,1453.74c-1.44,2.43,4,10,5.59,11.46s21.3-2.27,21.3-2.27l-7.71-23S1562.62,1451.3,1561.18,1453.74Z"/><path class="cls-5" d="M1572.65,1456.11c.21,13.06,32.32,14.33,44.1,4.94s-1.32-41.77-1.32-41.77S1572.28,1432.82,1572.65,1456.11Z"/><path d="M1593.85,1429.25l-.8-1.16c-.91.62-22.33,15.41-21.16,27.09s19.06,13.24,19.79,13.34l.19-1.4c-.17,0-17.5-1.38-18.58-12.08S1593.63,1429.4,1593.85,1429.25Z"/><path d="M1580.75,1440.57l-.77-1.19s-4.81,3.12-9.53,6.34c-9.79,6.69-9.9,7.43-10,7.92-.24,1.68,1.72,8.74,5.85,12.11l.89-1.09c-3.71-3-5.44-9.42-5.35-10.75l0,0C1562.8,1452.58,1572.2,1446.1,1580.75,1440.57Z"/><path class="cls-5" d="M1590.79,1343.2l-3-29.49-39.93,30.08C1550.07,1344.12,1590.79,1343.2,1590.79,1343.2Z"/><path class="cls-6" d="M1498.86,1316.35c-2.71,3.48,4.16,16.2,6.34,18.83s33.35.76,33.35.76l-7.31-37S1501.57,1312.88,1498.86,1316.35Z"/><path class="cls-5" d="M1516.1,1322.32c-2.3,20.21,47,28.61,67.11,16.47s6.34-64.78,6.34-64.78S1520.19,1286.27,1516.1,1322.32Z"/><path d="M1554.22,1285.09l-1-2c-1.53.78-37.59,19.33-38.11,37.6-.54,18.48,26.78,24.27,27.89,24.56l.57-2.12c-.26-.07-26.75-5.63-26.27-22.38C1517.79,1303.82,1553.85,1285.28,1554.22,1285.09Z"/><path d="M1499.92,1316.73c1.67-1.84,17.49-10,31.8-16.79l-1-2c-.08,0-8,3.84-16,7.87-16.47,8.37-16.78,9.49-17,10.23-.71,2.55.91,13.84,6.6,19.88l1.6-1.51c-5.12-5.43-6.52-15.63-6.11-17.67Z"/><rect x="1785.5" y="1121.65" width="1.93" height="101.95" transform="translate(-268.97 588.07) rotate(-17.41)"/><polygon class="cls-7" points="1635.82 1518.15 1663.46 1824.19 1923.21 1824.19 1870.51 1546.37 1866.9 1514.11 1635.82 1518.15"/><path class="cls-8" d="M1679.63,1111.45l.46,0C1680.08,1107.17,1680,1086.51,1679.63,1111.45Z"/><polygon class="cls-8" points="1575.78 1169.85 1576.18 1169.08 1556.69 1154.14 1556.18 1154.81 1575.78 1169.85"/><path class="cls-7" d="M1867.53,1420.55c-.16,17.18-.32,35.22-.49,52-.88,88.38-1.88,165.1-1.88,165.1l-193.4,37.88s-39.78-185.39-57.9-230.3-76.75-286.35-76.75-286.35l15.21-6.07.84-.33,2.28,1.75.74.56,4.24,3.25,0,0,0,0,0,0,10.31-13.46,10.74,3.45,2.16,1.43,2.13,1c6.82,4.36,16,12.24,27.36,26.42,1,1.21,2,2.52,2.93,3.93.4.58.81,1.18,1.22,1.8,5.27,7.94,10.56,18.38,15.65,30,.25.56.5,1.13.74,1.71s.5,1.13.74,1.7q1.69,4,3.35,8h0c.33.81.66,1.61,1,2.42l.75,1.87c16.62,42.08,29.67,90.41,29.67,90.41,6.74-6.56,16.48-21.68,14.28-53.76L1792,1355.87Z"/><path class="cls-8" d="M1867.74,1396v0h0Z"/><path class="cls-7" d="M1868.15,1337.43l-1-.83-179.85-153.23c0-1.08-7.35-68.67-7.25-71h0c0-.12,0-.18,0-.18h-.64c-2.57-.06-12.63-.26-26.53-.72l-.66,0-1.33-.05c-12.55-.42-28-1-43.73-1.89l-7.12-.42-1.22-1-53.69-45.75-1-.85c60.11-6.89,174-19.68,181.21-18.6,9.81,1.49,41.68,66.7,53.69,101.69s85.91,33.78,88.54,69.08C1868.46,1225.23,1868.5,1275.42,1868.15,1337.43Z"/><path d="M1506.85,1064.73l.57-.07-.76.89,0-.16Z"/><path d="M1681.1,1111.19l0,1c0,.06-.34.12-1,.15-6.38.4-42.93-.36-78.95-2.4l-1.05-.9-1.22-1c40.05,2.41,80.65,3.16,81.25,3.17Z"/><path d="M1869.1,1338.24c0,.47,0,.94,0,1.41s0,.94,0,1.42c0,7.85-.11,15.87-.16,24,0,1.06,0,2.12,0,3.19-.05,7.66-.12,15.41-.18,23.2,0,.52,0,1,0,1.57s0,1.2,0,1.8,0,1.31,0,2q-.11,12.66-.22,25.37h0c-.14,17-.31,34-.47,50.39h-1l-1,0c.17-16.9.33-34.41.49-52,.07-7.81.13-15.63.19-23.42,0-.6,0-1.2,0-1.8v-.18c0-.46,0-.92,0-1.39.06-7.79.13-15.55.18-23.21,0-2.39,0-4.75,0-7.11q.09-12.23.16-24c0-.48,0-1,0-1.42v-1.4c.35-61.15.32-111.34-.54-123-1.32-17.63-21.16-25.91-42.18-34.66-19.85-8.28-40.37-16.84-46.32-34.16s-16.77-42.15-27.61-63.3c-13.9-27.12-22.19-37.29-25.3-37.76-7-1.06-119.74,11.59-180.06,18.49l-1-.85-1-.86c60-6.88,175-19.8,182.38-18.69,11,1.65,43.24,69.65,54.45,102.34,5.67,16.5,25.78,24.89,45.24,33,21.57,9,42,17.49,43.35,36.32C1869.44,1225.27,1869.46,1276.31,1869.1,1338.24Z"/><path d="M1659.15,1326l1.09,1.59c.9-.6,21.84-15.12,23.27-36.7l-1.93-.13C1680.21,1311.39,1659.37,1325.85,1659.15,1326Z"/><rect class="cls-4" x="1692.57" y="986.42" width="63.22" height="540.93" transform="translate(-350.73 1754.21) rotate(-49.57)"/><rect class="cls-9" x="1712.02" y="986.42" width="24.32" height="540.93" transform="translate(-350.73 1754.21) rotate(-49.57)"/><rect class="cls-10" x="1861.43" y="1392.79" width="63.22" height="15.92" transform="translate(-400.89 1933.31) rotate(-49.57)"/><path class="cls-11" d="M1952.09,1451.07h0a31.61,31.61,0,0,1-44.56,3.56L1878.6,1430l41-48.13,28.93,24.66A31.6,31.6,0,0,1,1952.09,1451.07Z"/><path class="cls-12" d="M1457.4,1029.6l40.4,76h0a9.73,9.73,0,0,0,12.62-14.81c4,3.42,10.8,2,15.15-3.06s4.63-12,.62-15.45a9.72,9.72,0,0,0,12.61-14.8h0Z"/><path class="cls-4" d="M1497.8,1105.55s13.4-3,12.62-14.81l8.58,7.31-12.62,14.81Z"/><path class="cls-4" d="M1526.19,1072.23s13.39-3,12.61-14.8l8.58,7.31-12.61,14.8Z"/><path class="cls-9" d="M1510.42,1090.74s14.91-1.14,15.77-18.51l9.35,8-15.77,18.51Z"/><path class="cls-4" d="M1470.82,1054.82a18.21,18.21,0,0,0,13.62-16l-27-9.24Z"/><path d="M1952.92,1451.76c10.8-12.79,9.21-24.67,6-32.38a40.34,40.34,0,0,0-9.65-13.69l-409.9-349.22-.19-.06-84-28.71,26,48.91,1.9-1-23.46-44.1,78.63,26.88,409.57,348.95a38.82,38.82,0,0,1,9.11,13c4.33,10.39,2.42,20.51-5.67,30.09Z"/><rect x="1696.66" y="1120.12" width="2.15" height="311.29" transform="translate(-374.68 1739.43) rotate(-49.53)"/><rect x="1854.19" y="1364.71" width="2.15" height="23.96" transform="matrix(0.18, -0.98, 0.98, 0.18, 163.55, 2950.03)"/><rect x="1918.93" y="1430.4" width="2.15" height="13.61" transform="matrix(0.18, -0.98, 0.98, 0.18, 157.06, 3063.25)"/><rect x="1926.78" y="1439.32" width="2.15" height="13.61" transform="translate(154.87 3078.44) rotate(-79.51)"/><rect x="1860.54" y="1375.66" width="2.15" height="23.96" transform="translate(158.1 2965.36) rotate(-79.51)"/><rect x="1867.53" y="1404.88" width="63.22" height="2.15" transform="translate(-401.73 1943.93) rotate(-49.67)"/><path class="cls-7" d="M1639.19,1228.39c-.24-.63-.49-1.25-.74-1.87l-1-2.42h0c-1.11-2.73-2.22-5.41-3.35-8-.25-.57-.49-1.14-.74-1.7s-.5-1.15-.75-1.71c-5.08-11.59-10.38-22-15.64-30q-.62-.93-1.23-1.8-1.47-2.11-2.92-3.93c-11.35-14.18-20.54-22.06-27.37-26.42l-2.12-1-2.16-1.43-13-2.92-8.08,12.93-.05,0,0,0v0l-4.25-3.25-.73-.56-2.29-1.75-.83.33-15.21,6.07s17.36,71.47,36.1,143.88l75.06-51C1645.16,1244,1642.24,1236.1,1639.19,1228.39Z"/><polygon class="cls-8" points="1575.42 1169.85 1575.82 1169.08 1556.33 1154.14 1555.81 1154.81 1575.42 1169.85"/><path d="M1553.26,1228.18c18.81,75.08,47.94,188.27,59.71,217.43l1.79-.72c-11.74-29.1-40.87-142.3-59.66-217.33Z"/><rect x="1657.3" y="1247.39" width="1.93" height="73.09" transform="translate(-308.62 556.13) rotate(-17.44)"/><path class="cls-6" d="M1567,1201l5.8-1.62c22-11.89-5.18-76.06-10.91-88.82-2.84-6.32-6.2-7.91-8.86-7.91,0,0-8.46-1.61-13.85,4.55-1.82,1.76-3.34,4.94-3.37,10.64-.06,14.37,1.08,85.82,25.4,84.78Z"/><path d="M1539.92,1107.9l.08-.08c4.84-5.53,12.58-4.13,12.66-4.12l.66-2.18c-.38-.07-9.2-1.66-15,4.93-2.44,2.39-3.69,6.24-3.71,11.45-.06,14.52.93,86.89,26.5,85.79h.14l5.93-1.66-.44-2.13-5.65,1.58c-23.83.73-24.2-75.1-24.16-83.77C1537,1113.1,1538,1109.8,1539.92,1107.9Z"/><path class="cls-13" d="M426.14,1373.56c53.58,11.1-90,144.45-90,144.45S266,1534,267,1504.85s31.64-190.42,37.13-192.71C304.11,1312.14,372.57,1362.47,426.14,1373.56Z"/><path class="cls-13" d="M368,1573.72l13.33-26.48,26.57,42.34C405.68,1589.09,368,1573.72,368,1573.72Z"/><path class="cls-2" d="M463.42,1581.42c1.3,4.21-9.66,13.64-12.64,15.33s-31.43-11.19-31.43-11.19l20-32S462.12,1577.2,463.42,1581.42Z"/><path class="cls-13" d="M445.18,1580.84c-5.06,19.7-54.14,10-68.57-8.54s17.18-62.79,17.18-62.79S454.21,1545.7,445.18,1580.84Z"/><path d="M422.85,1532.47l1.63-1.48c1.15,1.28,28.22,31.46,22.2,48.72-6.09,17.46-33.67,13.12-34.82,13l.23-2.18c.26,0,27,4.27,32.52-11.55C450.2,1563,423.12,1532.77,422.85,1532.47Z"/><path d="M438.58,1554.36l1.59-1.51c.06.06,6.14,6.46,12.12,13.06,12.4,13.68,12.3,14.84,12.22,15.61-.24,2.64-5.78,12.61-13.25,16.22l-1-2c6.73-3.25,11.66-12.28,12-14.33v0C461.39,1579.08,449.51,1565.85,438.58,1554.36Z"/><path class="cls-13" d="M345,1615l8.56-17,17.06,27.19C369.23,1624.84,345,1615,345,1615Z"/><path class="cls-2" d="M406.31,1619.91c.83,2.71-6.21,8.77-8.12,9.85s-20.18-7.18-20.18-7.18l12.86-20.52S405.48,1617.21,406.31,1619.91Z"/><path class="cls-13" d="M394.6,1619.55c-3.25,12.64-34.77,6.39-44-5.49s11-40.31,11-40.31S400.4,1597,394.6,1619.55Z"/><path d="M380.26,1588.48l1-.94c.74.82,18.12,20.2,14.26,31.28s-21.62,8.43-22.36,8.35l.15-1.41c.17,0,17.33,2.75,20.88-7.41S380.43,1588.68,380.26,1588.48Z"/><path d="M390.35,1602.54l1-1s3.94,4.15,7.78,8.39c8,8.78,7.9,9.53,7.85,10-.16,1.7-3.71,8.1-8.51,10.41l-.61-1.27c4.31-2.08,7.48-7.88,7.7-9.2v0C405,1618.41,397.37,1609.92,390.35,1602.54Z"/><path class="cls-13" d="M403.31,1505.52l9.81-28,31.81,38.57C442.69,1515.92,403.31,1505.52,403.31,1505.52Z"/><path class="cls-2" d="M499,1500.87c1.83,4-7.83,14.77-10.56,16.83s-32.61-7-32.61-7l15.74-34.26S497.14,1496.86,499,1500.87Z"/><path class="cls-13" d="M480.81,1502.65c-2.48,20.18-52.42,16.84-69.1.35s9-64.47,9-64.47S485.24,1466.64,480.81,1502.65Z"/><path d="M452.43,1457.55l1.43-1.67c1.31,1.12,32,27.56,28.29,45.45-3.79,18.1-31.7,17.35-32.86,17.38l-.05-2.2c.26,0,27.32.77,30.76-15.63C483.48,1484.26,452.74,1457.82,452.43,1457.55Z"/><path d="M497.85,1501c-1.2-2.18-14.68-13.76-27-23.75l1.38-1.71c.07.06,6.93,5.62,13.71,11.39,14.05,12,14.1,13.14,14.13,13.91.1,2.65-4.11,13.25-11.06,17.79l-1.2-1.84c6.25-4.08,10-13.67,10.06-15.76Z"/><rect x="201.87" y="1293.02" width="101.95" height="1.93" transform="translate(-987.32 846.4) rotate(-59.1)"/><polygon class="cls-14" points="83.9 1637.8 0 1824.19 265 1824.19 318.7 1665.13 94.93 1607.28 83.9 1637.8"/><path class="cls-8" d="M371,1259.43l-.44-.13C371.57,1255.17,376.48,1235.11,371,1259.43Z"/><polygon class="cls-8" points="458.36 1340.46 458.15 1339.61 480.59 1329.64 480.93 1330.4 458.36 1340.46"/><path class="cls-14" d="M116,1516.24h0c-3.86,16.75-7.74,34.24-11.49,50.6-19.77,86.14-36.7,161-36.7,161l179.22,82s82-171,110-210.43,141.46-260.53,141.46-260.53l-13.38-9.45-.73-.52-2.63,1.17-.85.37-4.88,2.17,0,0h0l-.06,0-6.89-15.49-11.24.84-2.44.89-2.29.44c-7.65,2.65-18.43,8.17-32.77,19.3q-1.85,1.42-3.76,3.14c-.53.47-1.07,1-1.61,1.47-7,6.49-14.56,15.41-22.21,25.49-.38.49-.75,1-1.12,1.48s-.75,1-1.12,1.48q-2.58,3.46-5.14,7h0l-1.52,2.12-1.16,1.65c-26,37-49.95,81-49.95,81-5-8-10.37-28.86-1.68-56.18l-127,64.15Z"/><path class="cls-8" d="M121.69,1492.21h0Z"/><path class="cls-14" d="M135,1435.18l1.14-.58,210.64-107c.25-1,23.16-65.06,23.62-67.38h0l0-.18.64.14c2.51.55,12.34,2.69,26,5.49l.66.14,1.3.26c12.3,2.52,27.42,5.52,43,8.36l7,1.26,1.43-.72,62.89-32,1.17-.6c-56.84-20.72-164.62-59.74-171.87-60.37-9.88-.85-56.09,55.13-75.93,86.35s-91.42,12.8-102.21,46.52C160.84,1326,149.09,1374.8,135,1435.18Z"/><path d="M549.91,1254.33l-.53-.2.53,1v-.84Z"/><path d="M369.64,1258.84l-.2,1c0,.06.3.2.92.38,6.11,1.87,41.83,9.67,77.33,16.09l1.23-.63,1.43-.72c-39.51-7-79.16-15.74-79.75-15.87Z"/><path d="M133.84,1435.75c-.11.46-.21.92-.33,1.37s-.21.92-.32,1.38c-1.78,7.65-3.6,15.46-5.44,23.38-.24,1-.48,2.07-.73,3.11l-5.24,22.6c-.12.51-.23,1-.36,1.53s-.27,1.16-.4,1.75-.3,1.28-.44,1.92c-1.91,8.22-3.82,16.48-5.71,24.72h0c-3.84,16.61-7.64,33.14-11.31,49.11l.94.21,1,.21c3.77-16.47,7.7-33.53,11.65-50.67l5.28-22.82c.13-.58.27-1.17.41-1.76l0-.16c.1-.46.21-.9.32-1.36l5.24-22.62c.54-2.32,1.08-4.62,1.61-6.92q2.77-11.9,5.46-23.39c.11-.46.21-.93.32-1.38l.33-1.37c13.93-59.54,25.66-108.34,29.21-119.43,5.39-16.84,26.62-20.26,49.1-23.87,21.24-3.41,43.19-7,53-22.41s26.14-37.06,41.62-55.1c19.85-23.13,30.28-31.08,33.41-30.81,7.06.6,113.73,39.21,170.78,60l1.17-.6,1.19-.6c-56.76-20.7-165.53-60.09-173-60.73-11-1-58.3,57.63-76.83,86.81-9.37,14.72-30.88,18.19-51.7,21.53-23.07,3.71-44.88,7.22-50.63,25.2C159.87,1325.82,148,1375.45,133.84,1435.75Z"/><path d="M340.85,1472.84l-1.43,1.3c-.73-.8-17.7-19.8-14.06-41.13l1.91.33C323.78,1453.72,340.68,1472.65,340.85,1472.84Z"/><rect class="cls-15" x="262.13" y="1120" width="63.22" height="540.93" transform="translate(-812.82 2282.2) rotate(-116.94)"/><rect class="cls-3" x="281.59" y="1120" width="24.32" height="540.93" transform="translate(-812.82 2282.2) rotate(-116.94)"/><rect class="cls-10" x="64.37" y="1482.99" width="63.22" height="15.92" transform="translate(-1189.76 2251.89) rotate(-116.94)"/><path class="cls-11" d="M26.81,1526.1h0A31.61,31.61,0,0,0,69.31,1540l33.89-17.22-28.64-56.36L40.67,1483.6A31.61,31.61,0,0,0,26.81,1526.1Z"/><path class="cls-12" d="M606.2,1231.71l-57,64.42h0a9.73,9.73,0,0,1-8.81-17.34c-4.71,2.39-11-.53-14-6.51s-1.69-12.78,3-15.17a9.73,9.73,0,0,1-8.81-17.34h0Z"/><path class="cls-15" d="M549.19,1296.13s-12.34-6-8.81-17.34l-10,5.11,8.81,17.34Z"/><path class="cls-15" d="M529.36,1257.11s-12.33-6-8.81-17.34l-10,5.11,8.81,17.34Z"/><path class="cls-3" d="M540.38,1278.79s-14.23-4.59-11-21.68l-10.05,5.11,11,21.68Z"/><path class="cls-3" d="M587.27,1253.1a18.22,18.22,0,0,1-9.52-18.72l28.45-2.67Z"/><path d="M25.85,1526.58c-7.52-15-3.2-26.14,1.74-32.88a40.34,40.34,0,0,1,12.59-11.06l480.07-243.92.2,0,88.36-8.32-36.71,41.49-1.62-1.43L603.59,1233l-82.73,7.79L41.16,1484.56A38.67,38.67,0,0,0,29.29,1495c-6.64,9.09-7.15,19.38-1.52,30.58Z"/><rect x="159.41" y="1413.91" width="311.29" height="2.15" transform="translate(-607.48 296.79) rotate(-26.97)"/><rect x="137.24" y="1464.39" width="2.15" height="23.96" transform="translate(-1343.27 1537.3) rotate(-87)"/><rect x="60.17" y="1513.3" width="2.15" height="13.61" transform="translate(-1459.98 1501.71) rotate(-87)"/><rect x="50.45" y="1520.14" width="2.15" height="13.61" transform="translate(-1476.02 1498.42) rotate(-87)"/><rect x="128.52" y="1473.56" width="2.15" height="23.96" transform="translate(-1360.69 1537.2) rotate(-87)"/><rect x="87.75" y="1462.97" width="2.15" height="63.22" transform="translate(-665.05 201.01) rotate(-26.83)"/><path class="cls-14" d="M383,1382.59l1.17-1.65c.5-.72,1-1.42,1.51-2.13h0q2.56-3.58,5.14-7c.36-.5.73-1,1.11-1.48s.75-1,1.12-1.49c7.65-10.08,15.24-19,22.21-25.49.54-.51,1.08-1,1.61-1.47q1.92-1.69,3.76-3.14c14.34-11.13,25.12-16.65,32.78-19.3l2.29-.44,2.43-.88,13.29.19,4.85,14.45.05,0,0,0h0l4.89-2.17.84-.37,2.63-1.18.74.52,13.37,9.45s-33.56,65.45-68.68,131.48l-61.09-67.08C373.59,1396.38,378.28,1389.37,383,1382.59Z"/><polygon class="cls-8" points="458.71 1340.55 458.5 1339.7 480.94 1329.72 481.29 1330.49 458.71 1340.55"/><path d="M466.64,1402.44c-35.81,68.61-90.55,171.88-108.79,197.49l-1.58-1.12c18.21-25.55,73-128.84,108.73-197.41Z"/><rect x="314.98" y="1431.18" width="73.09" height="1.93" transform="translate(-1057.57 997.33) rotate(-59.06)"/><path class="cls-2" d="M459.67,1372.77l-5.25-2.93c-18.66-16.71,22.78-72.76,31.33-83.82,4.24-5.48,7.87-6.24,10.46-5.62,0,0,8.61.41,12.41,7.65,1.36,2.14,2.1,5.58.79,11.14-3.3,14-21.08,83.2-44.48,76.5Z"/><path d="M507.68,1288.59l-.05-.09c-3.42-6.51-11.27-7-11.35-7l-.13-2.28c.38,0,9.32.53,13.43,8.3,1.82,2.88,2.13,6.92.93,12-3.32,14.13-21.17,84.26-45.78,77.23l-.14,0-5.38-3,.93-2,5.13,2.86c23,6.27,41.05-67.39,43-75.82C509.36,1294.34,509.15,1290.9,507.68,1288.59Z"/></g></g></svg>